{
  "accessors": [
    {
      "bufferView": 2,
      "componentType": 5126,
      "count": 5139,
      "max": [
        1461.675537109375,
        304.2662658691406,
        1924.4383544921875
      ],
      "min": [
        -3528.828125,
        -1282.3011474609375,
        -1730.0386962890625
      ],
      "type": "VEC3"
    },
    {
      "bufferView": 2,
      "byteOffset": 61668,
      "componentType": 5126,
      "count": 5139,
      "max": [
        0.9995438456535339,
        1.0,
        0.9995437264442444
      ],
      "min": [
        -0.9995438456535339,
        -1.0,
        -0.9995438456535339
      ],
      "type": "VEC3"
    },
    {
      "bufferView": 1,
      "componentType": 5126,
      "count": 5139,
      "max": [
        1.0,
        1.0
      ],
      "min": [
        0.0,
        0.0
      ],
      "type": "VEC2"
    },
    {
      "bufferView": 0,
      "componentType": 5125,
      "count": 8364,
      "type": "SCALAR"
    },
    {
      "bufferView": 2,
      "byteOffset": 123336,
      "componentType": 5126,
      "count": 65532,
      "max": [
        2524.04736328125,
        906.2135620117188,
        3395.33251953125
      ],
      "min": [
        -3375.2861328125,
        -1205.1241455078125,
        -3079.642333984375
      ],
      "type": "VEC3"
    },
    {
      "bufferView": 2,
      "byteOffset": 909720,
      "componentType": 5126,
      "count": 65532,
      "max": [
        0.9998624920845032,
        1.0,
        0.9999045133590698
      ],
      "min": [
        -0.999744713306427,
        -0.9712834358215332,
        -0.9999428987503052
      ],
      "type": "VEC3"
    },
    {
      "bufferView": 1,
      "byteOffset": 41112,
      "componentType": 5126,
      "count": 65532,
      "max": [
        0.40234220027923584,
        0.5279622077941895
      ],
      "min": [
        0.0,
        -0.9847607612609863
      ],
      "type": "VEC2"
    },
    {
      "bufferView": 0,
      "byteOffset": 33456,
      "componentType": 5125,
      "count": 101400,
      "type": "SCALAR"
    },
    {
      "bufferView": 2,
      "byteOffset": 1696104,
      "componentType": 5126,
      "count": 65532,
      "max": [
        2671.7939453125,
        1238.412841796875,
        3629.951416015625
      ],
      "min": [
        -2912.6474609375,
        -1210.74072265625,
        -3201.0166015625
      ],
      "type": "VEC3"
    },
    {
      "bufferView": 2,
      "byteOffset": 2482488,
      "componentType": 5126,
      "count": 65532,
      "max": [
        0.9999209046363831,
        0.9886524677276611,
        0.999805212020874
      ],
      "min": [
        -0.999926745891571,
        -0.9712834358215332,
        -0.9998157024383545
      ],
      "type": "VEC3"
    },
    {
      "bufferView": 1,
      "byteOffset": 565368,
      "componentType": 5126,
      "count": 65532,
      "max": [
        0.6552713513374329,
        -0.0726175308227539
      ],
      "min": [
        0.009773772209882736,
        -0.9847607612609863
      ],
      "type": "VEC2"
    },
    {
      "bufferView": 0,
      "byteOffset": 439056,
      "componentType": 5125,
      "count": 98298,
      "type": "SCALAR"
    },
    {
      "bufferView": 2,
      "byteOffset": 3268872,
      "componentType": 5126,
      "count": 65532,
      "max": [
        3549.646728515625,
        1231.3104248046875,
        3373.830078125
      ],
      "min": [
        -3549.646728515625,
        -1232.6424560546875,
        -3629.951416015625
      ],
      "type": "VEC3"
    },
    {
      "bufferView": 2,
      "byteOffset": 4055256,
      "componentType": 5126,
      "count": 65532,
      "max": [
        0.9999740123748779,
        0.9999977946281433,
        0.9999985694885254
      ],
      "min": [
        -1.0,
        -0.9999977946281433,
        -0.9999893307685852
      ],
      "type": "VEC3"
    },
    {
      "bufferView": 1,
      "byteOffset": 1089624,
      "componentType": 5126,
      "count": 65532,
      "max": [
        0.9252269864082336,
        0.6477062106132507
      ],
      "min": [
        0.026675239205360413,
        -0.9832961559295654
      ],
      "type": "VEC2"
    },
    {
      "bufferView": 0,
      "byteOffset": 832248,
      "componentType": 5125,
      "count": 98298,
      "type": "SCALAR"
    },
    {
      "bufferView": 2,
      "byteOffset": 4841640,
      "componentType": 5126,
      "count": 65532,
      "max": [
        1583.71142578125,
        -442.92431640625,
        1652.603515625
      ],
      "min": [
        -3227.49951171875,
        -1164.6942138671875,
        -3452.5283203125
      ],
      "type": "VEC3"
    },
    {
      "bufferView": 2,
      "byteOffset": 5628024,
      "componentType": 5126,
      "count": 65532,
      "max": [
        0.9999740123748779,
        0.9999942779541016,
        0.9999747276306152
      ],
      "min": [
        -0.9999734163284302,
        -0.9999942779541016,
        -0.9999736547470093
      ],
      "type": "VEC3"
    },
    {
      "bufferView": 1,
      "byteOffset": 1613880,
      "componentType": 5126,
      "count": 65532,
      "max": [
        0.37337788939476013,
        0.6477062106132507
      ],
      "min": [
        0.30604618787765503,
        0.24599504470825195
      ],
      "type": "VEC2"
    },
    {
      "bufferView": 0,
      "byteOffset": 1225440,
      "componentType": 5125,
      "count": 98298,
      "type": "SCALAR"
    },
    {
      "bufferView": 2,
      "byteOffset": 6414408,
      "componentType": 5126,
      "count": 65533,
      "max": [
        2437.645263671875,
        1282.3011474609375,
        3530.928466796875
      ],
      "min": [
        -3168.33837890625,
        -869.2326049804688,
        -2318.226806640625
      ],
      "type": "VEC3"
    },
    {
      "bufferView": 2,
      "byteOffset": 7200804,
      "componentType": 5126,
      "count": 65533,
      "max": [
        0.9999274015426636,
        0.9999869465827942,
        0.9999985694885254
      ],
      "min": [
        -0.9998883605003357,
        -0.9999869465827942,
        -0.9999893307685852
      ],
      "type": "VEC3"
    },
    {
      "bufferView": 1,
      "byteOffset": 2138136,
      "componentType": 5126,
      "count": 65533,
      "max": [
        0.6528175473213196,
        0.6477062106132507
      ],
      "min": [
        0.0,
        -0.32778501510620117
      ],
      "type": "VEC2"
    },
    {
      "bufferView": 0,
      "byteOffset": 1618632,
      "componentType": 5125,
      "count": 87651,
      "type": "SCALAR"
    },
    {
      "bufferView": 2,
      "byteOffset": 7987200,
      "componentType": 5126,
      "count": 65532,
      "max": [
        3549.646728515625,
        1177.4837646484375,
        3373.830078125
      ],
      "min": [
        -3549.646728515625,
        -1232.6424560546875,
        -3629.951416015625
      ],
      "type": "VEC3"
    },
    {
      "bufferView": 2,
      "byteOffset": 8773584,
      "componentType": 5126,
      "count": 65532,
      "max": [
        0.9999734163284302,
        1.0,
        0.9999985694885254
      ],
      "min": [
        -1.0,
        -1.0,
        -0.9999893307685852
      ],
      "type": "VEC3"
    },
    {
      "bufferView": 1,
      "byteOffset": 2662400,
      "componentType": 5126,
      "count": 65532,
      "max": [
        0.9252269864082336,
        0.6477062106132507
      ],
      "min": [
        0.0,
        -0.9743571281433105
      ],
      "type": "VEC2"
    },
    {
      "bufferView": 0,
      "byteOffset": 1969236,
      "componentType": 5125,
      "count": 91428,
      "type": "SCALAR"
    },
    {
      "bufferView": 2,
      "byteOffset": 9559968,
      "componentType": 5126,
      "count": 65534,
      "max": [
        2368.496337890625,
        -321.8542785644531,
        3204.181396484375
      ],
      "min": [
        -2917.311767578125,
        -765.23291015625,
        76.18505859375
      ],
      "type": "VEC3"
    },
    {
      "bufferView": 2,
      "byteOffset": 10346376,
      "componentType": 5126,
      "count": 65534,
      "max": [
        0.9999274015426636,
        0.999987006187439,
        0.9999986290931702
      ],
      "min": [
        -0.9998883605003357,
        -0.9999869465827942,
        -0.9999893307685852
      ],
      "type": "VEC3"
    },
    {
      "bufferView": 1,
      "byteOffset": 3186656,
      "componentType": 5126,
      "count": 65534,
      "max": [
        0.37337788939476013,
        0.6477062106132507
      ],
      "min": [
        0.30604618787765503,
        0.24599504470825195
      ],
      "type": "VEC2"
    },
    {
      "bufferView": 0,
      "byteOffset": 2334948,
      "componentType": 5125,
      "count": 98298,
      "type": "SCALAR"
    },
    {
      "bufferView": 2,
      "byteOffset": 11132784,
      "componentType": 5126,
      "count": 43155,
      "max": [
        2790.091552734375,
        -317.1353759765625,
        2647.64990234375
      ],
      "min": [
        -254.6905059814453,
        -1070.580078125,
        -1184.95947265625
      ],
      "type": "VEC3"
    },
    {
      "bufferView": 2,
      "byteOffset": 11650644,
      "componentType": 5126,
      "count": 43155,
      "max": [
        0.9999274015426636,
        0.9999869465827942,
        0.9999986290931702
      ],
      "min": [
        -0.9998883605003357,
        -0.9999869465827942,
        -0.9999893307685852
      ],
      "type": "VEC3"
    },
    {
      "bufferView": 1,
      "byteOffset": 3710928,
      "componentType": 5126,
      "count": 43155,
      "max": [
        0.37337788939476013,
        0.6477062106132507
      ],
      "min": [
        0.30604618787765503,
        0.24599504470825195
      ],
      "type": "VEC2"
    },
    {
      "bufferView": 0,
      "byteOffset": 2728140,
      "componentType": 5125,
      "count": 64731,
      "type": "SCALAR"
    }
  ],
  "asset": {
    "extras": {
      "author": "Dickyhewage (https://sketchfab.com/Dickyhewage)",
      "license": "CC-BY-4.0 (http://creativecommons.org/licenses/by/4.0/)",
      "source": "https://sketchfab.com/3d-models/low-poly-forest-free-downloaddickyhewage-ec2e8bded2f84a5a8ddaf960d910d551",
      "title": "Low poly Forest | (Free Download)dickyhewage"
    },
    "generator": "Sketchfab-12.66.0",
    "version": "2.0"
  },
  "bufferViews": [
    {
      "buffer": 0,
      "byteLength": 2987064,
      "name": "floatBufferViews",
      "target": 34963
    },
    {
      "buffer": 0,
      "byteLength": 4056168,
      "byteOffset": 2987064,
      "byteStride": 8,
      "name": "floatBufferViews",
      "target": 34962
    },
    {
      "buffer": 0,
      "byteLength": 12168504,
      "byteOffset": 7043232,
      "byteStride": 12,
      "name": "floatBufferViews",
      "target": 34962
    }
  ],
  "buffers": [
    {
      "byteLength": 19211736,
      "uri": "scene.bin"
    }
  ],
  "images": [
    {
      "uri": "textures/lambert2_baseColor.jpeg"
    }
  ],
  "materials": [
    {
      "doubleSided": true,
      "name": "lambert1",
      "pbrMetallicRoughness": {
        "baseColorFactor": [
          0.45599999999999996,
          0.45599999999999996,
          0.45599999999999996,
          1.0
        ],
        "metallicFactor": 0.0,
        "roughnessFactor": 0.6
      }
    },
    {
      "doubleSided": true,
      "name": "lambert2",
      "pbrMetallicRoughness": {
        "baseColorTexture": {
          "index": 0
        },
        "metallicFactor": 0.0,
        "roughnessFactor": 0.6
      }
    }
  ],
  "meshes": [
    {
      "name": "pCube1_lambert1_0",
      "primitives": [
        {
          "attributes": {
            "NORMAL": 1,
            "POSITION": 0,
            "TEXCOORD_0": 2
          },
          "indices": 3,
          "material": 0,
          "mode": 4
        }
      ]
    },
    {
      "name": "pCube1_lambert2_0",
      "primitives": [
        {
          "attributes": {
            "NORMAL": 5,
            "POSITION": 4,
            "TEXCOORD_0": 6
          },
          "indices": 7,
          "material": 1,
          "mode": 4
        }
      ]
    },
    {
      "name": "pCube1_lambert2_0",
      "primitives": [
        {
          "attributes": {
            "NORMAL": 9,
            "POSITION": 8,
            "TEXCOORD_0": 10
          },
          "indices": 11,
          "material": 1,
          "mode": 4
        }
      ]
    },
    {
      "name": "pCube1_lambert2_0",
      "primitives": [
        {
          "attributes": {
            "NORMAL": 13,
            "POSITION": 12,
            "TEXCOORD_0": 14
          },
          "indices": 15,
          "material": 1,
          "mode": 4
        }
      ]
    },
    {
      "name": "pCube1_lambert2_0",
      "primitives": [
        {
          "attributes": {
            "NORMAL": 17,
            "POSITION": 16,
            "TEXCOORD_0": 18
          },
          "indices": 19,
          "material": 1,
          "mode": 4
        }
      ]
    },
    {
      "name": "pCube1_lambert2_0",
      "primitives": [
        {
          "attributes": {
            "NORMAL": 21,
            "POSITION": 20,
            "TEXCOORD_0": 22
          },
          "indices": 23,
          "material": 1,
          "mode": 4
        }
      ]
    },
    {
      "name": "pCube1_lambert2_0",
      "primitives": [
        {
          "attributes": {
            "NORMAL": 25,
            "POSITION": 24,
            "TEXCOORD_0": 26
          },
          "indices": 27,
          "material": 1,
          "mode": 4
        }
      ]
    },
    {
      "name": "pCube1_lambert2_0",
      "primitives": [
        {
          "attributes": {
            "NORMAL": 29,
            "POSITION": 28,
            "TEXCOORD_0": 30
          },
          "indices": 31,
          "material": 1,
          "mode": 4
        }
      ]
    },
    {
      "name": "pCube1_lambert2_0",
      "primitives": [
        {
          "attributes": {
            "NORMAL": 33,
            "POSITION": 32,
            "TEXCOORD_0": 34
          },
          "indices": 35,
          "material": 1,
          "mode": 4
        }
      ]
    }
  ],
  "nodes": [
    {
      "children": [
        1
      ],
      "matrix": [
        0.00646679781913595,
        -6.28629089097192e-20,
        0.0002831093731412368,
        0.0,
        0.0002831093731412368,
        1.435917566880096e-18,
        -0.00646679781913595,
        0.0,
        0.0,
        0.006472991779446602,
        1.4372929023501961e-18,
        0.0,
        14.42689323425293,
        -2.36282330913452e-14,
        106.41210174560547,
        1.0
      ],
      "name": "Sketchfab_model"
    },
    {
      "children": [
        2
      ],
      "matrix": [
        1.0,
        0.0,
        0.0,
        0.0,
        0.0,
        0.0,
        1.0,
        0.0,
        0.0,
        -1.0,
        0.0,
        0.0,
        0.0,
        0.0,
        0.0,
        1.0
      ],
      "name": "23cad3d4c52a4db58f391d515b580354.fbx"
    },
    {
      "children": [
        3
      ],
      "name": "RootNode"
    },
    {
      "children": [
        4,
        5,
        6,
        7,
        8,
        9,
        10,
        11,
        12
      ],
      "matrix": [
        1.0,
        0.0,
        0.0,
        0.0,
        0.0,
        1.0,
        0.0,
        0.0,
        0.0,
        0.0,
        1.0,
        0.0,
        -2424.61865234375,
        311.0691223144531,
        382.90850830078125,
        1.0
      ],
      "name": "pCube1"
    },
    {
      "mesh": 0,
      "name": "pCube1_lambert1_0"
    },
    {
      "mesh": 1,
      "name": "pCube1_lambert2_0"
    },
    {
      "mesh": 2,
      "name": "pCube1_lambert2_0"
    },
    {
      "mesh": 3,
      "name": "pCube1_lambert2_0"
    },
    {
      "mesh": 4,
      "name": "pCube1_lambert2_0"
    },
    {
      "mesh": 5,
      "name": "pCube1_lambert2_0"
    },
    {
      "mesh": 6,
      "name": "pCube1_lambert2_0"
    },
    {
      "mesh": 7,
      "name": "pCube1_lambert2_0"
    },
    {
      "mesh": 8,
      "name": "pCube1_lambert2_0"
    }
  ],
  "samplers": [
    {
      "magFilter": 9729,
      "minFilter": 9987,
      "wrapS": 10497,
      "wrapT": 10497
    }
  ],
  "scene": 0,
  "scenes": [
    {
      "name": "Sketchfab_Scene",
      "nodes": [
        0
      ]
    }
  ],
  "textures": [
    {
      "sampler": 0,
      "source": 0
    }
  ]
}
