{
    "asset" : {
        "generator" : "Khronos glTF Blender I/O v3.3.32",
        "version" : "2.0"
    },
    "scene" : 0,
    "scenes" : [
        {
            "name" : "Scene",
            "nodes" : [
                2
            ]
        }
    ],
    "nodes" : [
        {
            "mesh" : 0,
            "name" : "Object_16",
            "scale" : [
                3.5,
                2,
                1
            ]
        },
        {
            "children" : [
                0
            ],
            "name" : "Drevniy_Hram_Export_Day3.OBJ.cleaner.materialmerger.gles"
        },
        {
            "children" : [
                1
            ],
            "name" : "Sketchfab_model",
            "rotation" : [
                -0.7071068286895752,
                0,
                0,
                0.7071067094802856
            ]
        }
    ],
    "materials" : [
        {
            "doubleSided" : true,
            "name" : "material_0.001",
            "pbrMetallicRoughness" : {
                "baseColorFactor" : [
                    0.9219117164611816,
                    0.9034695029258728,
                    0.9034695029258728,
                    1
                ],
                "metallicFactor" : 0,
                "roughnessFactor" : 0.6000000238418579
            }
        }
    ],
    "meshes" : [
        {
            "name" : "Object_14.001",
            "primitives" : [
                {
                    "attributes" : {
                        "POSITION" : 0,
                        "NORMAL" : 1,
                        "COLOR_0" : 2
                    },
                    "indices" : 3,
                    "material" : 0
                }
            ]
        }
    ],
    "accessors" : [
        {
            "bufferView" : 0,
            "componentType" : 5126,
            "count" : 13886,
            "max" : [
                134.94667053222656,
                114.75889587402344,
                -11.12782096862793
            ],
            "min" : [
                -133.4776611328125,
                -106.18687438964844,
                -41.22262954711914
            ],
            "type" : "VEC3"
        },
        {
            "bufferView" : 1,
            "componentType" : 5126,
            "count" : 13886,
            "type" : "VEC3"
        },
        {
            "bufferView" : 2,
            "componentType" : 5123,
            "count" : 13886,
            "normalized" : true,
            "type" : "VEC4"
        },
        {
            "bufferView" : 3,
            "componentType" : 5123,
            "count" : 82584,
            "type" : "SCALAR"
        }
    ],
    "bufferViews" : [
        {
            "buffer" : 0,
            "byteLength" : 166632,
            "byteOffset" : 0,
            "target" : 34962
        },
        {
            "buffer" : 0,
            "byteLength" : 166632,
            "byteOffset" : 166632,
            "target" : 34962
        },
        {
            "buffer" : 0,
            "byteLength" : 111088,
            "byteOffset" : 333264,
            "target" : 34962
        },
        {
            "buffer" : 0,
            "byteLength" : 165168,
            "byteOffset" : 444352,
            "target" : 34963
        }
    ],
    "buffers" : [
        {
            "byteLength" : 609520,
            "uri" : "data:application/octet-stream;base64,"
        }
    ]
}
