{
  "accessors": [
    {
      "bufferView": 2,
      "componentType": 5126,
      "count": 1628,
      "max": [
        65.4927978515625,
        162.92410278320313,
        83.8791732788086
      ],
      "min": [
        -65.86138916015625,
        -0.11292266100645065,
        -81.67825317382813
      ],
      "type": "VEC3"
    },
    {
      "bufferView": 2,
      "byteOffset": 19536,
      "componentType": 5126,
      "count": 1628,
      "max": [
        1.0,
        0.9999997019767761,
        1.0
      ],
      "min": [
        -1.0,
        -0.9999996423721313,
        -1.0
      ],
      "type": "VEC3"
    },
    {
      "bufferView": 3,
      "componentType": 5126,
      "count": 1628,
      "max": [
        0.9999992847442627,
        1.0,
        0.9999927282333374,
        1.0
      ],
      "min": [
        -0.9999986886978149,
        -0.9999995231628418,
        -0.9999810457229614,
        -1.0
      ],
      "type": "VEC4"
    },
    {
      "bufferView": 1,
      "componentType": 5126,
      "count": 1628,
      "max": [
        0.9946209192276001,
        0.9987355470657349
      ],
      "min": [
        0.0058860182762146,
        0.003021717071533203
      ],
      "type": "VEC2"
    },
    {
      "bufferView": 0,
      "componentType": 5125,
      "count": 2814,
      "type": "SCALAR"
    }
  ],
  "asset": {
    "extras": {
      "author": "BaptisteBerard (https://sketchfab.com/BaptisteBerard)",
      "license": "CC-BY-4.0 (http://creativecommons.org/licenses/by/4.0/)",
      "source": "https://sketchfab.com/3d-models/cabin-1f6614552be14718828f9190b7824d48",
      "title": "Cabin"
    },
    "generator": "Sketchfab-12.68.0",
    "version": "2.0"
  },
  "bufferViews": [
    {
      "buffer": 0,
      "byteLength": 11256,
      "name": "floatBufferViews",
      "target": 34963
    },
    {
      "buffer": 0,
      "byteLength": 13024,
      "byteOffset": 11256,
      "byteStride": 8,
      "name": "floatBufferViews",
      "target": 34962
    },
    {
      "buffer": 0,
      "byteLength": 39072,
      "byteOffset": 24280,
      "byteStride": 12,
      "name": "floatBufferViews",
      "target": 34962
    },
    {
      "buffer": 0,
      "byteLength": 26048,
      "byteOffset": 63352,
      "byteStride": 16,
      "name": "floatBufferViews",
      "target": 34962
    }
  ],
  "buffers": [
    {
      "byteLength": 89400,
      "uri": "scene.bin"
    }
  ],
  "images": [
    {
      "uri": "textures/Shader_Cabane_baseColor.png"
    },
    {
      "uri": "textures/Shader_Cabane_emissive.png"
    },
    {
      "uri": "textures/Shader_Cabane_normal.png"
    }
  ],
  "materials": [
    {
      "doubleSided": true,
      "emissiveFactor": [
        1.0,
        1.0,
        1.0
      ],
      "emissiveTexture": {
        "index": 1
      },
      "name": "Shader_Cabane",
      "normalTexture": {
        "index": 2
      },
      "pbrMetallicRoughness": {
        "baseColorTexture": {
          "index": 0
        },
        "metallicFactor": 0.4895198171,
        "roughnessFactor": 0.6
      }
    }
  ],
  "meshes": [
    {
      "name": "cabane_Shader_Cabane_0",
      "primitives": [
        {
          "attributes": {
            "NORMAL": 1,
            "POSITION": 0,
            "TANGENT": 2,
            "TEXCOORD_0": 3
          },
          "indices": 4,
          "material": 0,
          "mode": 4
        }
      ]
    }
  ],
  "nodes": [
    {
      "children": [
        1
      ],
      "matrix": [
        0.7212892770767212,
        -1.537956266491755e-16,
        0.6926339268684387,
        0.0,
        0.6926339268684387,
        1.60158392565162e-16,
        -0.7212892770767212,
        0.0,
        0.0,
        1.0,
        2.220446049250313e-16,
        0.0,
        1.9473446607589722,
        -2.642308161652357e-16,
        1.1899898052215576,
        1.0
      ],
      "name": "Sketchfab_model"
    },
    {
      "children": [
        2
      ],
      "matrix": [
        1.0,
        0.0,
        0.0,
        0.0,
        0.0,
        0.0,
        1.0,
        0.0,
        0.0,
        -1.0,
        0.0,
        0.0,
        0.0,
        0.0,
        0.0,
        1.0
      ],
      "name": "82e8b4d2ca454b1593c0b6f615340103.fbx"
    },
    {
      "children": [
        3
      ],
      "name": "RootNode"
    },
    {
      "children": [
        4
      ],
      "matrix": [
        2.739546298980713,
        0.0,
        0.0,
        0.0,
        0.0,
        2.739546298980713,
        0.0,
        0.0,
        0.0,
        0.0,
        2.739546298980713,
        0.0,
        0.0,
        0.0,
        0.0,
        1.0
      ],
      "name": "cabane"
    },
    {
      "mesh": 0,
      "name": "cabane_Shader_Cabane_0"
    }
  ],
  "samplers": [
    {
      "magFilter": 9729,
      "minFilter": 9987,
      "wrapS": 10497,
      "wrapT": 10497
    }
  ],
  "scene": 0,
  "scenes": [
    {
      "name": "Sketchfab_Scene",
      "nodes": [
        0
      ]
    }
  ],
  "textures": [
    {
      "sampler": 0,
      "source": 0
    },
    {
      "sampler": 0,
      "source": 1
    },
    {
      "sampler": 0,
      "source": 2
    }
  ]
}
